<svg version="1.1" id="Layer_3" xmlns="http://www.w3.org/2000/svg" x="0" y="0" viewBox="0 0 512 512" xml:space="preserve"><style>.st4{fill:#155c7a;fill-opacity:.21}.st8{fill:#fff}</style><linearGradient id="SVGID_1_" gradientUnits="userSpaceOnUse" x1="183.1" y1="99.3" x2="400.5" y2="566.5"><stop offset="0" stop-color="#4dfeea"/><stop offset=".1" stop-color="#5bfee5"/><stop offset=".3" stop-color="#80fed8"/><stop offset=".5" stop-color="#bcfdc3"/><stop offset=".8" stop-color="#fffdab"/></linearGradient><path fill="url(#SVGID_1_)" d="M0 0h512v512H0z"/><path d="M182 78c16-17 68-41 81-45 11-4 68-22 115-33H0v194c53-11 88-34 121-54s45-44 61-62z" fill="#157a77" fill-opacity=".2"/><path d="M173 65c16-17 66-39 78-43s50-14 91-22H0v176c50-10 84-33 115-52 32-19 43-42 58-59z" fill="#feab0a"/><linearGradient id="SVGID_2_" gradientUnits="userSpaceOnUse" x1="118.3" y1="81.8" x2="95.7" y2="-4.5"><stop offset=".2" stop-color="#fdef0c"/><stop offset="1" stop-color="#fdca00"/></linearGradient><path d="M179 30c9-7 24-16 53-30H0v146c52-8 114-50 127-59 14-10 43-48 52-57z" fill="url(#SVGID_2_)"/><path class="st4" d="M236 404L97 385l-64 51 140 76h34l143-18z"/><path class="st4" d="M72 382c25 13 216 75 216 75s-82-132-93-134-93-12-93-43 71-60 84-65c12-4 113-36 131-44 19-9 51-29 45-68-5-40-56-48-71-50-14-3-85-11-85-11l-25 15 96 14c21 4 44 16 44 40s-65 36-73 37-96 22-134 34c-35 10-97 54-114 99v44c13 30 52 46 72 57z"/><linearGradient id="SVGID_3_" gradientUnits="userSpaceOnUse" x1="180.6" y1="35.1" x2="182.6" y2="421.4"><stop offset="0" stop-color="#fd7402"/><stop offset=".6" stop-color="#febc01"/></linearGradient><path d="M72 375c25 13 129 46 129 46s5-103-6-106-93-11-93-42 71-60 84-65c12-4 113-36 131-44 19-9 51-29 45-68-5-40-56-48-71-50-14-3-85-11-85-11l-25 15 96 14c21 4 44 16 44 40s-65 36-73 37-96 22-134 34c-35 10-97 54-114 99v44c13 30 52 46 72 57z" fill="url(#SVGID_3_)"/><linearGradient id="SVGID_4_" gradientUnits="userSpaceOnUse" x1="180.6" y1="36.3" x2="182.5" y2="394.7"><stop offset="0" stop-color="#fd9e00"/><stop offset=".6" stop-color="#fdf502"/></linearGradient><path d="M72 368c25 14 129 53 129 53s5-110-6-112-93-12-93-43 71-59 84-64c12-5 113-36 131-45s51-28 45-68c-5-39-56-48-71-50l-85-10-25 14 96 14c21 4 44 17 44 41 0 23-57 33-73 37-16 3-69 12-147 41-33 13-86 48-101 91v45c13 30 52 45 72 56z" fill="url(#SVGID_4_)"/><path fill="#d00016" fill-opacity=".2" d="M233 428h-14L92 383l4-4-4-1 93-69z"/><path class="st8" d="M305 190c-28-2-43 2-99-19 33 10 73 11 108 8 22-2-9 11-9 11zM237 231c-22-6-40-14-43-19 0 0 34 9 56 6 14-1-13 13-13 13zM176 286c-21-6-66-19-84-45 15 14 49 26 78 27 2 10 6 18 6 18zM191 353c-23-7-45-17-48-18 17 5 48 12 55 12-2 5-7 6-7 6zM200 419c-21-7-63-19-103-43 17 7 73 29 102 31l1 12z"/><path fill="#fefd0d" d="M158 262l156 33 152-112-156-7z"/><linearGradient id="SVGID_5_" gradientUnits="userSpaceOnUse" x1="211.8" y1="297.6" x2="314.2" y2="439.4"><stop offset="0" stop-color="#ffae00"/><stop offset="1" stop-color="#fd6e01"/></linearGradient><path d="M158 262s43 118 38 157c60 28 154 75 154 75l-36-199-156-33z" fill="url(#SVGID_5_)"/><linearGradient id="SVGID_6_" gradientUnits="userSpaceOnUse" x1="426.9" y1="252.1" x2="370.8" y2="411.2"><stop offset="0" stop-color="#ffe92e"/><stop offset=".6" stop-color="#fec80d"/><stop offset="1" stop-color="#febc01"/></linearGradient><path d="M466 183L314 295l36 199 132-119c3-110-16-192-16-192z" fill="url(#SVGID_6_)"/><path fill="#fdfd97" d="M181 267l127 31 28 120-18-123 108-82-114 75z"/><path d="M213 295c13 0 28 6 43 17s20 23 23 27c3 5 6 14 5 25-1 8-4 11-14 17-12 7-17 7-18 14 14 6 44 18 47 21s10 7 11 10c2 3 6 13-6 8l-28-12-23-9c-14-7-18-9-24-15-2-2-6-7-5-13s5-9 9-12l13-7 13-8c2-2 5-6 3-12a46 46 0 00-31-32c-5-1-9 1-9 5-1 4 0 11-4 11s-11-3-15-9-5-14-4-19c1-4 6-8 14-7z" fill="#d35500"/><path d="M212 305c14 0 28 7 43 18s20 22 23 27 6 14 5 25c-1 7-4 11-14 17-11 7-17 7-18 13l47 21c4 3 10 7 11 11 2 3 6 13-6 8l-28-12-23-10c-14-6-18-9-24-14-2-3-6-8-5-13 1-6 5-9 9-12l13-8c6-3 11-5 13-8 2-2 5-6 4-11-2-5-6-16-14-22-8-7-13-10-18-10s-9 1-9 5c-1 4 0 10-3 11s-12-3-16-9c-3-7-5-15-4-19 2-5 7-8 14-8z" fill="#fefdfd"/></svg>