<svg xmlns="http://www.w3.org/2000/svg" viewBox="0 0 400 400" width="400" height="400">
  <defs>
    <linearGradient id="bg" x1="0%" y1="0%" x2="100%" y2="100%">
      <stop offset="0%" style="stop-color:#6366f1"/>
      <stop offset="100%" style="stop-color:#8b5cf6"/>
    </linearGradient>
  </defs>
  <rect width="400" height="400" rx="60" fill="url(#bg)"/>
  <!-- Controller body -->
  <path d="M100 180 Q100 150 130 150 L170 150 Q185 150 195 160 L205 160 Q215 150 230 150 L270 150 Q300 150 300 180 L310 240 Q315 270 290 275 L270 275 Q250 275 245 255 L240 235 Q235 225 225 225 L175 225 Q165 225 160 235 L155 255 Q150 275 130 275 L110 275 Q85 270 90 240 Z" fill="white" opacity="0.95"/>
  <!-- D-pad -->
  <rect x="125" y="182" width="40" height="14" rx="3" fill="#6366f1" opacity="0.8"/>
  <rect x="138" y="169" width="14" height="40" rx="3" fill="#6366f1" opacity="0.8"/>
  <!-- Buttons -->
  <circle cx="250" cy="178" r="9" fill="#ef4444"/>
  <circle cx="272" cy="190" r="9" fill="#3b82f6"/>
  <circle cx="250" cy="202" r="9" fill="#22c55e"/>
  <circle cx="228" cy="190" r="9" fill="#eab308"/>
  <!-- Center buttons -->
  <rect x="185" y="192" width="12" height="6" rx="3" fill="#6366f1" opacity="0.4"/>
  <rect x="203" y="192" width="12" height="6" rx="3" fill="#6366f1" opacity="0.4"/>
  <!-- Text -->
  <text x="200" y="330" text-anchor="middle" font-family="sans-serif" font-weight="700" font-size="36" fill="white" opacity="0.95">EMULATOR</text>
</svg>
