<svg xmlns="http://www.w3.org/2000/svg" viewBox="0 0 400 400" width="400" height="400">
  <defs>
    <linearGradient id="bg" x1="0%" y1="0%" x2="100%" y2="100%">
      <stop offset="0%" style="stop-color:#6366f1"/>
      <stop offset="100%" style="stop-color:#8b5cf6"/>
    </linearGradient>
    <linearGradient id="shine" x1="0%" y1="0%" x2="0%" y2="100%">
      <stop offset="0%" style="stop-color:rgba(255,255,255,0.2)"/>
      <stop offset="100%" style="stop-color:rgba(255,255,255,0)"/>
    </linearGradient>
  </defs>
  <rect width="400" height="400" rx="60" fill="url(#bg)"/>
  <rect width="400" height="200" rx="60" fill="url(#shine)"/>
  <!-- Editor window -->
  <rect x="60" y="80" width="280" height="200" rx="16" fill="rgba(0,0,0,0.35)"/>
  <!-- Title bar dots -->
  <circle cx="82" cy="100" r="5" fill="#ef4444" opacity="0.9"/>
  <circle cx="98" cy="100" r="5" fill="#eab308" opacity="0.9"/>
  <circle cx="114" cy="100" r="5" fill="#22c55e" opacity="0.9"/>
  <!-- Code lines -->
  <rect x="80" y="125" width="60" height="6" rx="3" fill="#c084fc" opacity="0.8"/>
  <rect x="148" y="125" width="40" height="6" rx="3" fill="#67e8f9" opacity="0.7"/>
  <rect x="196" y="125" width="80" height="6" rx="3" fill="#fde68a" opacity="0.6"/>
  <rect x="95" y="145" width="50" height="6" rx="3" fill="#86efac" opacity="0.7"/>
  <rect x="153" y="145" width="70" height="6" rx="3" fill="#fca5a5" opacity="0.6"/>
  <rect x="95" y="165" width="90" height="6" rx="3" fill="#67e8f9" opacity="0.7"/>
  <rect x="193" y="165" width="45" height="6" rx="3" fill="#c084fc" opacity="0.6"/>
  <rect x="95" y="185" width="35" height="6" rx="3" fill="#fde68a" opacity="0.6"/>
  <rect x="138" y="185" width="60" height="6" rx="3" fill="#86efac" opacity="0.7"/>
  <rect x="80" y="205" width="45" height="6" rx="3" fill="#c084fc" opacity="0.8"/>
  <rect x="133" y="205" width="55" height="6" rx="3" fill="#fca5a5" opacity="0.6"/>
  <rect x="80" y="225" width="70" height="6" rx="3" fill="#67e8f9" opacity="0.6"/>
  <rect x="158" y="225" width="40" height="6" rx="3" fill="#fde68a" opacity="0.5"/>
  <!-- Cursor blink -->
  <rect x="206" y="223" width="2" height="12" rx="1" fill="white" opacity="0.9"/>
  <!-- </> brackets -->
  <text x="200" y="340" text-anchor="middle" font-family="monospace" font-weight="700" font-size="48" fill="white" opacity="0.95">&lt;/&gt;</text>
</svg>
